<svg width="400" height="69" viewBox="0 0 400 69" fill="none" xmlns="http://www.w3.org/2000/svg">
<path d="M96.5483 55.9982C81.9422 55.9982 70.6224 44.0922 70.6224 28.6069C70.6224 13.1947 81.9422 1.36169 96.5483 1.36169C109.694 1.36169 120.21 10.1269 122.182 23.0556H113.637C112.177 14.5826 105.312 8.593 96.6213 8.593C86.251 8.593 78.9479 16.993 78.9479 28.6069C78.9479 40.3669 86.251 48.7669 96.6213 48.7669C105.312 48.7669 112.177 42.7043 113.637 34.2313H122.182C120.21 47.233 109.694 55.9982 96.5483 55.9982Z" fill="#273F8B"/>
<path d="M205.908 35.5461C205.908 47.233 199.189 55.633 188.818 55.633C183.56 55.633 179.105 53.0035 176.33 48.3287V69H168.954V16.1895H175.819V23.2747C178.594 18.3078 183.341 15.4591 188.818 15.4591C199.116 15.4591 205.908 23.8591 205.908 35.5461ZM198.239 35.5461C198.239 26.8539 193.639 21.96 187.285 21.96C181.15 21.96 176.33 26.8539 176.33 35.5461C176.33 44.0922 181.077 49.0591 187.285 49.0591C193.639 49.0591 198.239 44.2382 198.239 35.5461Z" fill="#273F8B"/>
<path d="M233.921 47.7443V54.2452C231.657 55.2678 229.685 55.633 227.348 55.633C220.191 55.633 215.225 51.7617 215.225 43.2156V22.4713H206.681V16.1895H215.225V4.72169H222.601V16.1895H234.286V22.4713H222.601V41.5356C222.601 46.8678 225.158 48.7669 229.101 48.7669C230.854 48.7669 232.388 48.4748 233.921 47.7443Z" fill="#273F8B"/>
<path d="M249.578 7.20517C249.578 9.98083 247.387 12.0991 244.247 12.0991C241.107 12.0991 238.843 9.98083 238.843 7.20517C238.843 4.35647 241.107 2.31125 244.247 2.31125C247.387 2.31125 249.578 4.35647 249.578 7.20517ZM247.972 54.9026H240.596V16.1895H247.972V54.9026Z" fill="#273F8B"/>
<path d="M289.615 16.1895L275.081 54.9026H267.048L252.515 16.1895H260.475L271.211 46.4295L282.092 16.1895H289.615Z" fill="#273F8B"/>
<path d="M360.655 47.7443V54.2452C358.391 55.2678 356.419 55.633 354.082 55.633C346.925 55.633 341.959 51.7617 341.959 43.2156V22.4713H333.415V16.1895H341.959V4.72169H349.335V16.1895H361.02V22.4713H349.335V41.5356C349.335 46.8678 351.891 48.7669 355.835 48.7669C357.588 48.7669 359.121 48.4748 360.655 47.7443Z" fill="#273F8B"/>
<path d="M382.18 55.633C371.007 55.633 363.484 47.5252 363.484 35.3269C363.484 23.8591 371.299 15.4591 381.961 15.4591C393.5 15.4591 401.168 24.8087 399.854 37.3721H371.007C371.591 45.2609 375.534 49.8626 382.034 49.8626C387.511 49.8626 391.309 46.8678 392.551 41.8278H399.854C397.955 50.4469 391.309 55.633 382.18 55.633ZM381.815 21.0104C375.9 21.0104 371.883 25.2469 371.08 32.4782H392.039C391.674 25.32 387.804 21.0104 381.815 21.0104Z" fill="#273F8B"/>
<path fill-rule="evenodd" clip-rule="evenodd" d="M39.1113 6.75575C37.7624 5.25668 35.4303 5.09908 33.6674 6.86228L6.86107 33.6733C6.82646 33.7079 6.79095 33.7416 6.75457 33.7744C5.25575 35.1235 5.09818 37.456 6.86107 39.2192L18.8681 51.2283C19.9585 52.319 19.9585 54.0873 18.8681 55.178C17.7776 56.2686 16.0096 56.2686 14.9191 55.178L2.91213 43.1689C-0.891176 39.3649 -1.0656 33.3588 2.95974 29.676L29.7184 2.91264C33.5217 -0.891326 39.5267 -1.06579 43.2089 2.96024L58.7983 18.5524C62.6016 22.3564 62.776 28.3624 58.7507 32.0452L35.622 55.178C34.5315 56.2686 32.7635 56.2686 31.6731 55.178C30.5826 54.0873 30.5826 52.319 31.6731 51.2283L54.8494 28.048C54.884 28.0134 54.9195 27.9797 54.9559 27.9469C56.4547 26.5977 56.6122 24.2652 54.8494 22.502L39.2123 6.86228C39.1777 6.82766 39.144 6.79214 39.1113 6.75575Z" fill="#273F8B"/>
<path fill-rule="evenodd" clip-rule="evenodd" d="M14.4005 53.2032C14.4005 51.6607 15.5726 50.4104 17.0184 50.4104H97.0619C98.5078 50.4104 99.6799 51.6607 99.6799 53.2032C99.6799 54.7456 98.5078 55.996 97.0619 55.996H17.0184C15.5726 55.996 14.4005 54.7456 14.4005 53.2032Z" fill="#273F8B"/>
<path fill-rule="evenodd" clip-rule="evenodd" d="M9.33449 23.3002C10.425 22.2095 12.193 22.2095 13.2834 23.3002L38.4143 48.4355C39.5048 49.5262 39.5048 51.2945 38.4143 52.3852C37.3239 53.4758 35.5559 53.4758 34.4654 52.3852L9.33449 27.2498C8.24401 26.1592 8.24401 24.3909 9.33449 23.3002Z" fill="#273F8B"/>
<path d="M125.337 35.909C125.337 47.596 132.056 55.996 142.426 55.996C147.684 55.996 152.139 53.3664 154.915 48.6916L154.915 55.996H162.291L162.291 16.2043H155.426V23.6377C152.651 18.6707 147.904 15.822 142.426 15.822C132.129 15.822 125.337 24.222 125.337 35.909ZM133.005 35.909C133.005 27.2168 137.606 22.3229 143.96 22.3229C150.094 22.3229 154.915 27.2168 154.915 35.909C154.915 44.4551 150.168 49.4221 143.96 49.4221C137.606 49.4221 133.005 44.6012 133.005 35.909Z" fill="#273F8B"/>
<path d="M290.819 35.909C290.819 47.596 297.538 55.996 307.908 55.996C313.167 55.996 317.621 53.3664 320.397 48.6916L320.397 55.996H327.773L327.773 16.2043H320.908V23.6377C318.133 18.6707 313.386 15.822 307.908 15.822C297.611 15.822 290.819 24.222 290.819 35.909ZM298.487 35.909C298.487 27.2168 303.088 22.3229 309.442 22.3229C315.577 22.3229 320.397 27.2168 320.397 35.909C320.397 44.4551 315.65 49.4221 309.442 49.4221C303.088 49.4221 298.487 44.6012 298.487 35.909Z" fill="#273F8B"/>
</svg>
